<svg width="400" height="400" viewBox="0 0 400 400" fill="none" xmlns="http://www.w3.org/2000/svg">
<path d="M76.4205 324V105.818H150.142C167.188 105.818 181.179 108.73 192.116 114.554C203.054 120.307 211.151 128.226 216.406 138.311C221.662 148.396 224.29 159.866 224.29 172.722C224.29 185.577 221.662 196.976 216.406 206.919C211.151 216.862 203.089 224.675 192.223 230.357C181.357 235.967 167.472 238.773 150.568 238.773H90.9091V214.909H149.716C161.364 214.909 170.739 213.205 177.841 209.795C185.014 206.386 190.199 201.557 193.395 195.307C196.662 188.986 198.295 181.457 198.295 172.722C198.295 163.986 196.662 156.351 193.395 149.817C190.128 143.283 184.908 138.24 177.734 134.689C170.561 131.067 161.08 129.256 149.29 129.256H102.841V324H76.4205ZM179.119 225.989L232.812 324H202.131L149.29 225.989H179.119Z" fill="url(#paint0_linear_4_41)"/>
<path d="M349.077 114.226L317.189 101.507L305.281 59.4559C304.823 57.8342 303.429 56.7222 301.856 56.7222C300.282 56.7222 298.889 57.8342 298.43 59.4559L286.526 101.507L254.634 114.226C253.226 114.789 252.294 116.23 252.294 117.847C252.294 119.461 253.226 120.909 254.634 121.469L286.508 134.184L298.419 177.517C298.871 179.154 300.268 180.278 301.856 180.278C303.439 180.278 304.84 179.154 305.292 177.513L317.203 134.18L349.08 121.465C350.481 120.909 351.417 119.465 351.417 117.847C351.417 116.234 350.481 114.789 349.077 114.226Z" fill="#4829B9"/>
<path d="M277.41 156.702L269.118 153.397L265.893 140.655C265.47 138.972 264.055 137.806 262.439 137.806C260.823 137.806 259.407 138.972 258.981 140.651L255.756 153.393L247.468 156.698C246.059 157.258 245.128 158.706 245.128 160.32C245.128 161.934 246.059 163.382 247.468 163.941L255.713 167.235L258.963 181.22C259.364 182.934 260.794 184.139 262.439 184.139C264.084 184.139 265.513 182.934 265.915 181.216L269.165 167.231L277.41 163.938C278.818 163.382 279.75 161.934 279.75 160.32C279.75 158.706 278.818 157.258 277.41 156.702ZM261.866 73.0586L253.395 69.6801L250.256 60.5486C249.736 59.0312 248.396 58.0273 246.894 58.0273C245.397 58.0273 244.056 59.0312 243.533 60.5486L240.398 69.6801L231.923 73.0586C230.515 73.6223 229.583 75.0664 229.583 76.6803C229.583 78.2943 230.515 79.7422 231.923 80.302L240.398 83.6805L243.533 92.812C244.056 94.3295 245.397 95.3333 246.894 95.3333C248.392 95.3333 249.732 94.3295 250.256 92.812L253.391 83.6805L261.866 80.302C263.274 79.7383 264.205 78.2943 264.205 76.6803C264.205 75.0664 263.274 73.6223 261.866 73.0586Z" fill="#7956F9"/>
<defs>
<linearGradient id="paint0_linear_4_41" x1="151.168" y1="100.423" x2="291.351" y2="326.127" gradientUnits="userSpaceOnUse">
<stop stop-color="#7E5AFF"/>
<stop offset="1" stop-color="#260A8C"/>
</linearGradient>
</defs>
</svg>
