<svg width="592" height="427" viewBox="0 0 592 427" fill="none" xmlns="http://www.w3.org/2000/svg">
<path d="M26.4205 355V136.818H100.142C117.188 136.818 131.179 139.73 142.116 145.554C153.054 151.307 161.151 159.226 166.406 169.311C171.662 179.396 174.29 190.866 174.29 203.722C174.29 216.577 171.662 227.976 166.406 237.919C161.151 247.862 153.089 255.675 142.223 261.357C131.357 266.967 117.472 269.773 100.568 269.773H40.9091V245.909H99.7159C111.364 245.909 120.739 244.205 127.841 240.795C135.014 237.386 140.199 232.557 143.395 226.307C146.662 219.986 148.295 212.457 148.295 203.722C148.295 194.986 146.662 187.351 143.395 180.817C140.128 174.283 134.908 169.24 127.734 165.689C120.561 162.067 111.08 160.256 99.2898 160.256H52.8409V355H26.4205ZM129.119 256.989L182.812 355H152.131L99.2898 256.989H129.119ZM227.264 355H199.565L279.679 136.818H306.951L387.065 355H359.366L294.167 171.335H292.463L227.264 355ZM237.491 269.773H349.139V293.21H237.491V269.773ZM447.47 136.818V355H421.049V136.818H447.47Z" fill="url(#paint0_linear_4_28)"/>
<path d="M585.618 65.2257L551.258 52.5072L538.427 10.4559C537.933 8.83423 536.431 7.72223 534.736 7.72223C533.041 7.72223 531.539 8.83423 531.045 10.4559L518.218 52.5072L483.854 65.2257C482.337 65.7895 481.333 67.2297 481.333 68.8475C481.333 70.4614 482.337 71.9093 483.854 72.4692L518.199 85.1838L531.033 128.517C531.52 130.154 533.025 131.278 534.736 131.278C536.442 131.278 537.952 130.154 538.439 128.513L551.273 85.18L585.621 72.4653C587.131 71.9093 588.139 70.4653 588.139 68.8475C588.139 67.2335 587.131 65.7895 585.618 65.2257Z" fill="#4829B9"/>
<path d="M508.395 107.702L499.461 104.397L495.986 91.6551C495.53 89.9716 494.005 88.8056 492.264 88.8056C490.522 88.8056 488.997 89.9716 488.538 91.6512L485.063 104.393L476.132 107.698C474.614 108.258 473.611 109.706 473.611 111.32C473.611 112.934 474.614 114.382 476.132 114.941L485.016 118.235L488.518 132.22C488.951 133.934 490.491 135.139 492.264 135.139C494.036 135.139 495.576 133.934 496.009 132.216L499.511 118.231L508.395 114.938C509.913 114.382 510.917 112.934 510.917 111.32C510.917 109.706 509.913 108.258 508.395 107.702ZM491.646 24.0586L482.518 20.6801L479.136 11.5486C478.576 10.0312 477.132 9.02728 475.514 9.02728C473.9 9.02728 472.456 10.0312 471.892 11.5486L468.514 20.6801L459.382 24.0586C457.865 24.6223 456.861 26.0664 456.861 27.6803C456.861 29.2943 457.865 30.7422 459.382 31.302L468.514 34.6805L471.892 43.812C472.456 45.3295 473.9 46.3333 475.514 46.3333C477.128 46.3333 478.572 45.3295 479.136 43.812L482.514 34.6805L491.646 31.302C493.163 30.7383 494.167 29.2943 494.167 27.6803C494.167 26.0664 493.163 24.6223 491.646 24.0586Z" fill="#7956F9"/>
<defs>
<linearGradient id="paint0_linear_4_28" x1="149.728" y1="135.974" x2="274.302" y2="414.051" gradientUnits="userSpaceOnUse">
<stop stop-color="#7E5AFF"/>
<stop offset="1" stop-color="#260A8C"/>
</linearGradient>
</defs>
</svg>
